# xmcd
#
# Track frame offsets:
#	150
#	15573
#	32480
#	45327
#	56425
#	75295
#	93728
#	109504
#	125691
#	143426
#	161495
#	180199
#	194948
#	207387
#	223775
#	250169
#
# Disc length: 3341 seconds
#
# Revision: 1
# Processed by: cddbd v1.5.2PL0 Copyright (c) Steve Scherf et al.
# Submitted via: audiograbber 1.83.01
#
DISCID=d00d0b10
DTITLE=All Star Karaoke - Guy Country Vol 2 Disc 1
DYEAR=1900
DGENRE=Country
TTITLE0=Brooks and Dunn - Ain't Nothing 'Bout You
TTITLE1=Wills, Mark - Almost Doesn't Count
TTITLE2=Strait, George - Amarillo By Morning
TTITLE3=Jackson, Alan - Chattahoochee
TTITLE4=McGraw, Tim - Cowboy In Me
TTITLE5=Jackson, Alan - Drive (For Daddy Gene)
TTITLE6=Brooks and Dunn - Every River
TTITLE7=Holy, Steve - Good Morning Beautiful
TTITLE8=McGraw, Tim - Grown Men Don't Cry
TTITLE9=Cagle, Chris - I Breathe In, I Breathe Out
TTITLE10=Chesney, Kenny - I Lost It
TTITLE11=Paisley, Brad - I'm Going To Miss Her
TTITLE12=Jackson, Alan - It's Alright To Be A Redneck
TTITLE13=Strait, George - Living And Living Well
TTITLE14=McGuinn, Mark - Miss Steven Rudy
TTITLE15=Data - Data Track
EXTD=
EXTT0=
EXTT1=
EXTT2=
EXTT3=
EXTT4=
EXTT5=
EXTT6=
EXTT7=
EXTT8=
EXTT9=
EXTT10=
EXTT11=
EXTT12=
EXTT13=
EXTT14=
EXTT15=
PLAYORDER=
